<svg width="32" height="32" viewBox="0 0 32 32" fill="none" xmlns="http://www.w3.org/2000/svg">
<path d="M16 0.5C7.43937 0.5 0.5 7.43937 0.5 16C0.5 24.5606 7.43937 31.5 16 31.5C24.5606 31.5 31.5 24.5606 31.5 16C31.5 7.43937 24.5606 0.5 16 0.5ZM16 27.5C9.64437 27.5 4.5 22.3569 4.5 16C4.5 9.64437 9.64313 4.5 16 4.5C22.3556 4.5 27.5 9.64313 27.5 16C27.5 22.3556 22.3569 27.5 16 27.5ZM16 8C11.5819 8 8 11.5819 8 16C8 20.4181 11.5819 24 16 24C20.4181 24 24 20.4181 24 16C24 11.5819 20.4181 8 16 8ZM16 20C13.7944 20 12 18.2056 12 16C12 13.7944 13.7944 12 16 12C18.2056 12 20 13.7944 20 16C20 18.2056 18.2056 20 16 20Z" fill="white"/>
</svg>
