<svg width="32" height="32" viewBox="0 0 32 32" fill="none" xmlns="http://www.w3.org/2000/svg">
<path d="M31.8066 15.1889C28.7939 9.3106 22.8294 5.33337 16 5.33337C9.17053 5.33337 3.20441 9.31337 0.193303 15.1895C0.0662151 15.4409 0 15.7186 0 16.0003C0 16.282 0.0662151 16.5598 0.193303 16.8112C3.20608 22.6895 9.17053 26.6667 16 26.6667C22.8294 26.6667 28.7955 22.6867 31.8066 16.8106C31.9337 16.5592 31.9999 16.2815 31.9999 15.9998C31.9999 15.7181 31.9337 15.4403 31.8066 15.1889V15.1889ZM16 24C14.4177 24 12.871 23.5308 11.5554 22.6518C10.2398 21.7727 9.21444 20.5233 8.60893 19.0615C8.00343 17.5997 7.84501 15.9912 8.15369 14.4393C8.46237 12.8875 9.2243 11.462 10.3431 10.3432C11.4619 9.22437 12.8874 8.46244 14.4392 8.15376C15.9911 7.84508 17.5996 8.0035 19.0614 8.609C20.5232 9.21451 21.7727 10.2399 22.6517 11.5555C23.5308 12.8711 24 14.4178 24 16C24.0005 17.0508 23.7939 18.0913 23.392 19.0621C22.9902 20.0329 22.4009 20.9151 21.658 21.658C20.915 22.401 20.0329 22.9903 19.062 23.3921C18.0912 23.794 17.0507 24.0006 16 24V24ZM16 10.6667C15.5239 10.6734 15.051 10.7442 14.5939 10.8773C14.9706 11.3893 15.1515 12.0194 15.1035 12.6533C15.0555 13.2873 14.782 13.883 14.3325 14.3325C13.8829 14.7821 13.2872 15.0556 12.6533 15.1036C12.0194 15.1515 11.3892 14.9707 10.8772 14.5939C10.5856 15.6681 10.6383 16.8067 11.0277 17.8495C11.4171 18.8922 12.1237 19.7866 13.0481 20.4067C13.9724 21.0268 15.068 21.3414 16.1805 21.3063C17.293 21.2711 18.3665 20.888 19.2499 20.2108C20.1333 19.5336 20.782 18.5964 21.1049 17.5311C21.4277 16.4659 21.4084 15.3263 21.0496 14.2726C20.6908 13.2189 20.0106 12.3043 19.1048 11.6574C18.1989 11.0106 17.1131 10.6641 16 10.6667V10.6667Z" fill="white"/>
</svg>
