<svg width="32" height="32" viewBox="0 0 32 32" fill="none" xmlns="http://www.w3.org/2000/svg">
<path d="M10.24 14.72C9.71 14.015 8.705 13.87 8 14.4C7.295 14.93 7.15 15.935 7.68 16.64L9.585 19.18C9.825 19.5 9.79 19.945 9.51 20.225L8.87 20.865C8.535 21.2 7.99 21.175 7.69 20.81L3.2 15.42V8.00002C3.2 7.11502 2.485 6.40002 1.6 6.40002C0.715 6.40002 0 7.11502 0 8.00002V18.92C0 19.465 0.185 19.995 0.525 20.42L5.73 27.135C5.98 27.46 6.15 27.83 6.25 28.22C6.34 28.565 6.655 28.8 7.015 28.8H13.6C14.04 28.8 14.4 28.44 14.4 28V22.4C14.4 21.015 13.95 19.67 13.12 18.56L10.24 14.72V14.72ZM30.4 6.40002C29.515 6.40002 28.8 7.11502 28.8 8.00002V15.42L24.31 20.81C24.01 21.17 23.46 21.195 23.13 20.865L22.49 20.225C22.21 19.945 22.175 19.5 22.415 19.18L24.32 16.64C24.85 15.935 24.705 14.93 24 14.4C23.295 13.87 22.29 14.015 21.76 14.72L18.88 18.56C18.05 19.67 17.6 21.015 17.6 22.4V28C17.6 28.44 17.96 28.8 18.4 28.8H24.985C25.34 28.8 25.66 28.565 25.75 28.22C25.85 27.83 26.02 27.46 26.27 27.135L31.475 20.42C31.815 19.995 32 19.465 32 18.92V8.00002C32 7.11502 31.285 6.40002 30.4 6.40002Z" fill="white"/>
</svg>
